<?xml version="1.0" encoding="UTF-8" standalone="no"?>
<!DOCTYPE svg PUBLIC "-//W3C//DTD SVG 1.1//EN" "http://www.w3.org/Graphics/SVG/1.1/DTD/svg11.dtd">
<svg width="100%" height="100%" viewBox="0 0 512 512" version="1.1" xmlns="http://www.w3.org/2000/svg" xmlns:xlink="http://www.w3.org/1999/xlink" xml:space="preserve" xmlns:serif="http://www.serif.com/" style="fill-rule:evenodd;clip-rule:evenodd;stroke-linejoin:round;stroke-miterlimit:2;">
    <g transform="matrix(0.458743,0,0,0.458743,28.111255,21.084579)">
        <path d="M515.498,1021.459C465.37,1025.362 397.431,1013.573 357.527,1000.419C357.151,1000.295 331.153,993.136 295.636,977.15C292.115,975.565 254.143,955.404 250.75,953.058C245.378,949.345 203.041,924.161 165.735,888.27C152.755,875.781 125.138,850.512 88.982,798.178C50.567,742.576 31.001,682.206 27.528,671.491C21.096,651.647 11.301,622.431 5.614,570.483C5.446,568.946 4.02,563.381 3.259,543.516C3.253,543.366 1.286,530.803 1.929,500.51C1.964,498.854 3.708,472.919 3.87,470.52C4.197,465.647 9.467,417.79 16.619,392.538C20.8,377.775 24.344,356.065 40.779,315.599C50.128,292.581 88.066,204.152 170.16,131.131C183.16,119.568 182.444,118.743 221.603,89.645C223.134,88.508 223.258,88.734 241.609,76.677C265.26,61.139 304.781,42.065 320.502,36.506C327.58,34.004 364.172,17.903 417.55,8.894C468.692,0.262 513.192,1.403 527.531,3.269C531.635,3.803 539.593,3.276 551.496,5.524C553.086,5.825 553.196,4.931 571.56,8.097C624.666,17.251 656.296,28.309 698.329,46.918C742.558,66.499 801.496,105.562 849.094,154.803C859.471,165.539 859.188,165.706 868.987,177.023C874.343,183.208 874.898,182.726 892.827,207.269C895.287,210.637 927.627,253.009 950.718,309.408C971.967,361.307 978.209,391.161 985.58,431.484C986.789,438.097 991.666,477.577 991.733,506.499C991.848,557.02 988.642,559.153 986.481,585.498C986.302,587.674 986.264,588.137 982.208,612.452C980.728,621.322 968.251,670.736 961.131,688.346C948.773,718.909 949.646,719.254 934.362,748.428C926.148,764.107 926.683,764.376 917.239,779.314C910.844,789.431 867.216,865.776 778.165,930.004C751.557,949.195 744.43,952.841 718.285,967.2C716.816,968.007 684.978,983.952 658.432,993.297C623.616,1005.554 623.41,1004.827 587.417,1013.116C579.001,1015.054 578.899,1014.252 570.431,1016.149C569.107,1016.446 548.521,1019.379 544.528,1019.812C534.272,1020.924 517.823,1021.393 515.498,1021.459L498.495,38.105C467.433,38.667 467.44,38.483 436.546,41.97C430.66,42.635 389.419,50.523 373.593,55.796C346.668,64.767 292.357,80.173 226.448,129.427C216.941,136.532 215.163,138.402 214.3,139.31C211.953,141.778 210.386,139.937 181.863,166.88C179.098,169.492 179.722,170.173 168.031,181.006C157.058,191.173 127.577,228.533 123.997,233.822C113.275,249.666 66.55,316.129 47.465,404.492C34.536,464.354 36.752,492.523 35.786,497.544C35.326,499.939 34.551,538.452 38.497,567.501C39.406,574.197 46.105,623.511 54.898,650.369C73.892,708.383 91.778,739.039 95.983,746.246C99.123,751.629 101.325,756.476 106.079,762.811C107.09,764.159 106.529,764.504 117.361,780.593C126.227,793.763 126.327,793.613 135.992,806.126C139.21,810.293 142.37,815.574 165.638,841.363C192.352,870.972 238.816,908.119 274.287,927.841C311.652,948.617 312.151,947.564 332.35,955.882C339.234,958.716 358.325,967.348 399.414,976.883C419.41,981.524 455.511,987.595 479.492,987.801C487.9,987.873 669.366,1004.299 821.659,848.655C870.491,798.749 918.671,726.421 941.494,641.498C941.987,639.665 944.671,628.747 944.944,627.637C984.852,465.307 925.835,337.478 924.41,333.531C919.439,319.757 897.539,275.524 891.702,267.366C887.669,261.729 882.195,249.193 858.027,217.846C851.725,209.672 851.343,210.054 845.109,201.782C842.802,198.721 829.67,183.198 818.159,172.885C815.951,170.906 814.869,168.279 798.795,154.102C783.457,140.575 782.353,141.909 778.919,138.138C773.817,132.536 734.294,106.396 730.323,103.769C714.97,93.615 672.4,72.695 643.567,63.257C637.687,61.332 578.8,38.251 498.495,38.105L515.498,1021.459Z" style="fill:rgb(223,212,178);fill-opacity:1;"/>
        <path d="M497.469,747.57C497.153,747.554 497.105,746.922 496.789,746.907C495.293,746.833 498.194,748.749 490.795,764.647C482.466,782.541 479.687,787.311 463.518,802.52C461.526,804.394 447.357,813.609 438.384,816.047C425.604,819.519 425.681,819.628 412.48,821.378C408.325,821.929 412.86,830.782 412.252,848.491C411.732,863.647 403.84,903.338 360.491,901.733C347.426,901.25 335.928,897.906 315.592,880.392C281.656,851.165 262.381,790.169 257.874,778.363C253.774,767.624 239.743,717.891 238.468,716.529C231.423,709.004 202.131,688.64 192.612,679.367C180.183,667.259 179.763,667.709 168.838,654.266C108.534,580.06 127.95,489.567 132.364,462.482C132.552,461.333 138.309,435.631 139.397,432.458C139.414,432.411 147.27,404.932 154.281,387.41C155.175,385.176 164.169,362.699 165.324,359.432C166.867,355.067 170.305,352.028 170.756,343.517C171.325,332.785 171.596,332.832 174.634,322.532C176.045,317.749 181.307,310.129 182.003,309.122C185.982,303.36 194.249,276.673 209.623,257.593C220.702,243.843 237.207,221.82 276.388,203.274C288.17,197.696 321.551,186.976 345.5,186.484C373.987,185.898 375.548,185.368 406.479,187.91C408.876,188.107 454.2,193.512 477.562,198.212C495.628,201.847 498.749,201.3 500.576,200.98C508.687,199.558 566.162,189.486 602.511,186.642C602.734,186.625 637.294,185.083 656.515,187.385C664.07,188.29 731.145,192.709 778.32,249.666C801.396,277.525 804.857,298.734 814.969,314.179C824.545,328.804 823.252,346.384 824.532,349.487C830.006,362.766 859.431,426.584 864.994,485.447C865.355,489.267 867.205,497.17 867.708,510.491C869.03,545.521 867.741,600.543 826.982,651.906C800.603,685.148 786.551,689.479 758.605,713.619C757.183,714.847 755.2,715.785 754.768,717.574C752.983,724.97 728.036,818.778 697.667,858.622C683.123,877.703 677.467,884.73 653.339,897.169C647.479,900.189 630.044,905.049 615.45,899.62C601.525,894.44 594.596,887.428 587.244,872.627C577.498,853.005 584.208,822.544 583.366,821.631C581.601,819.718 558.319,822.371 534.195,804.873C506.143,784.526 498.891,754.099 498.208,748.62C497.962,748.27 497.715,747.92 497.469,747.57Z" style="fill:rgb(251,251,246);fill-opacity:1;"/>
        <path d="M148.796,514.51C151.476,474.125 155.181,462.728 159.094,447.377C160.508,441.827 169.006,408.49 181.295,379.314C182.499,376.455 183.355,381.581 193.7,390.276C212.194,405.819 233.949,402.206 237.521,401.613C284.967,393.733 299.678,336.723 270.474,305.524C246.602,280.021 218.68,289.046 217.741,287.352C216.938,285.905 232.704,260.08 256.621,241.671C320.765,192.298 402.792,208.161 494.511,224.422C503.965,226.098 582.231,204.887 647.525,209.185C741.517,215.373 776.078,285.59 776.127,285.665C780.652,292.638 763.531,280.235 738.311,294.161C696.511,317.243 700.801,378.208 741.692,397.099C771.611,410.921 796.025,393.833 797.161,393.044C810.472,383.796 811.141,375.079 813.289,380.599C838.706,445.932 840.815,471.911 843.482,492.502C847.117,520.569 845.009,544.091 843.79,553.551C836.694,608.664 812.89,632.085 806.039,643.124C804.453,645.68 803.296,643.868 803.768,642.542C809.456,626.56 819.884,571.212 772.377,557.97C730.055,546.172 685.567,622.351 677.903,658.572C676.538,665.019 677.429,665.526 671.352,673.378C663.921,682.98 673.233,661.363 651.224,602.595C641.282,576.049 638.347,575.563 640.487,574.456C641.478,573.943 641.531,574.337 653.354,579.829C663.436,584.513 663.478,584.386 664.335,584.831C677.037,591.42 687.706,573.172 672.695,565.139C637.916,546.528 577.575,531.311 536.515,529.272C469.193,525.928 439.677,529.739 400.54,537.717C370.906,543.757 332.475,559.038 320.669,565.766C311.324,571.093 313.219,583.643 322.599,586.078C328.922,587.719 350.981,574.305 353.495,574.427C356.047,574.55 352.733,579.458 352.684,579.573C352.162,580.818 334.686,617.049 328.66,654.53C325.491,674.236 326.736,676.738 324.525,675.448C324.303,675.319 318.435,667.767 318.336,667.587C316.724,664.656 314.208,626.724 274.42,581.572C231.571,532.947 193.362,567.344 187.564,591.516C180.25,622.008 192.026,643.263 190.49,644.489C189.876,644.98 189.386,644.95 183.904,637.188C159.888,603.183 147.434,574.618 148.796,514.51Z" style="fill:rgb(162,100,15);fill-opacity:1;"/>
        <path d="M380.572,526.849C376.011,527.855 359.252,533.177 357.673,533.926C356.119,534.664 332.039,542.817 322.376,548.283C318.138,550.68 316.218,549.699 308.394,555.348C305.967,557.099 305.561,556.368 303.317,558.309C301.399,559.968 300.723,559.36 297.613,564.559C297.421,564.88 294.58,572.103 294.324,576.473C294.176,578.984 295.024,579.514 293.37,580.263C291.995,580.885 292.27,578.987 289.374,575.638C268.582,551.59 259.891,549.216 243.454,543.653C242.835,543.444 230.411,541.689 222.57,542.995C200.542,546.663 189.631,558.082 181.144,570.296C174.115,580.412 175.765,587.366 173.517,587.355C172.692,587.35 173.442,586.757 170.491,577.503C158.227,539.039 166.996,484.441 168.279,476.458C169.008,471.919 173.976,447.839 176.622,440.543C178.708,434.791 186.368,405.813 188.492,405.481C191.396,405.026 194.785,411.148 213.424,414.964C213.454,414.97 238.181,422.598 265.309,407.089C269.009,404.974 270.501,402.57 270.525,405.497C270.604,415.273 276.787,437.377 281.294,445.633C282.697,448.203 295.124,478.867 331.466,500.552C337.296,504.032 345.327,506.826 346.576,507.261C353.227,509.576 353.009,510.357 370.43,513.748C382.536,516.104 402.098,515.537 406.534,514.652C414.132,513.136 445.376,508.184 473.363,480.373C483.071,470.726 487.934,462.636 493.198,454.36C493.805,453.404 495.741,449.219 495.951,448.766C497.56,445.289 498.993,449.751 499.871,451.31C502.762,456.451 506.875,467.357 526.485,485.515C532.696,491.266 546.487,499.686 548.306,500.796C556.366,505.717 556.846,504.661 565.414,508.7C573.17,512.358 594.484,515.73 604.497,515.406C609.444,515.247 618.82,516.203 644.365,509.041C644.475,509.01 666.228,501.274 683.425,485.407C705.667,464.885 714.472,446.405 720.266,426.455C721.523,422.126 723.546,408.149 723.778,406.548C724.494,401.597 726.446,407.756 743.541,413.389C753.81,416.772 765.561,416.761 767.496,416.76C769.272,416.758 777.199,416.75 789.378,413.006C795.433,411.144 805.229,404.264 806.095,404.789C806.18,404.841 810.868,418.179 813.566,427.475C817.497,441.018 818.162,440.787 821.349,454.531C821.792,456.439 825.476,472.328 826.24,478.528C826.98,484.538 827.219,484.448 827.803,490.483C827.957,492.077 832.122,509.23 829.612,545.51C828.256,565.105 822.579,578.605 821.55,585.516C821.366,586.753 819.61,587.843 819.13,584.609C818.77,582.186 816.025,573.553 811.9,568.185C806.019,560.531 797.169,548.118 772.55,543.182C761.751,541.017 746.089,543.948 742.296,546.195C741.406,546.722 740.977,545.811 730.653,551.82C729.267,552.627 716.908,561.761 713.97,565.752C713.641,566.198 703.383,577.516 701.767,579.89C698.02,585.395 701.074,577.536 698.965,571.264C693.008,553.551 687.957,557.634 671.271,547.831C664.953,544.119 641.082,535.713 638.414,534.774C623.881,529.656 624.053,529.052 591.459,521.657C577.952,518.592 573.131,518.303 571.515,518.206C570.15,518.124 570.259,517.434 554.559,516.068C552.648,515.902 541.547,513.411 511.507,513.077C507.303,513.03 476.46,512.151 454.51,514.575C427.282,517.583 427.252,517.185 415.462,519.301C412.652,519.805 389.71,523.922 380.572,526.849Z" style="fill:rgb(199,132,29);"/>
        <path d="M376.456,499.926C372.243,499.374 348.683,496.288 327.36,479.683C274.331,438.387 274.758,370.625 308.92,329.85C362.103,266.374 452.028,287.072 482.251,348.628C518.663,422.785 461.698,509.065 376.456,499.926Z" style="fill:rgb(251,251,246);fill-opacity:1;"/>
        <path d="M708.841,394.494C708.829,397.876 712.629,452.372 656.651,486.751C629.224,503.596 571.369,513.519 527.405,465.583C510.515,447.167 504.252,422.675 503.204,418.577C493.331,379.964 511.122,321.28 565.697,298.944C615.506,278.559 671.9,300.067 696.958,347.237C709.473,370.796 708.797,391.104 708.841,394.494Z" style="fill:rgb(251,251,246);fill-opacity:1;"/>
        <path d="M581.442,556.825C601.957,561.556 610.25,562.57 612.34,566.588C632.237,604.825 643.404,645.791 644.804,658.46C646.588,674.602 647.67,674.495 647.251,699.486C647.189,703.193 646.52,703.073 632.884,721.797C626.639,730.373 608.144,758.517 600.996,774.727C594.801,788.777 594.575,788.675 593.091,793.395C591.062,799.844 590.166,800.297 584.468,799.778C536.032,795.365 517.296,765.382 509.582,695.492C505.684,660.169 508.826,630.266 510.986,621.607C517.278,596.384 527.173,572.531 556.303,557.127C561.474,554.393 566.225,554.127 581.442,556.825Z" style="fill:rgb(141,167,129);"/>
        <path d="M398.493,786.503C394.207,775.712 389.513,767.786 388.656,765.442C388.298,764.465 380.494,751.553 379.769,750.355C354.174,708.012 347.263,706.64 346.933,699.463C345.246,662.825 354.145,620.59 382.365,566.42C384.69,561.958 415.441,556.03 425.534,554.974C442.973,553.15 475.705,577.939 483.699,625.466C484.628,630.993 488.993,656.946 484.59,695.51C476.84,763.387 460.212,796.338 406.474,800.014C401.972,800.322 402.656,794.411 398.493,786.503Z" style="fill:rgb(140,167,129);"/>
        <path d="M523.919,379.575C524.957,375.682 524.95,375.707 525.04,375.37C526.221,370.908 533.268,344.281 557.699,327.798C601.827,298.024 644.206,320.358 657.302,331.739C701.678,370.304 694.503,432.957 653.838,462.911C595.28,506.045 510.666,458.229 523.919,379.575Z" style="fill:rgb(93,124,130);fill-opacity:1;"/>
        <path d="M307.813,383.552C318.532,324.058 369.846,315.102 376.563,313.982C424.024,306.068 476.481,343.399 471.354,404.488C471.014,408.544 469.072,431.678 451.168,451.184C395.24,512.114 297.56,466.702 307.813,383.552Z" style="fill:rgb(95,126,130);"/>
        <path d="M498.651,341.578C496.598,347.146 495.668,341.179 491.07,333.76C487.868,328.593 477.602,309.914 449.434,292.593C447.776,291.574 431.225,283.463 428.422,282.825C417.956,280.443 418.219,279.401 407.559,278.086C407.15,278.035 383.14,273.296 357.404,281.174C350.826,283.188 350.781,282.929 344.578,285.783C341.092,287.387 343.694,283.829 343.934,275.519C344.538,254.613 331.619,239.027 318.406,232.67C312.78,229.964 322.304,228.811 323.506,228.517C352.515,221.423 402.502,225.431 420.452,228.716C421.489,228.906 421.495,228.742 433.527,230.307C454.485,233.031 494.96,240.832 497.504,240.534C513.779,238.633 609.461,218.438 656.557,226.117C671.194,228.504 678.114,230.57 678.226,230.717C678.585,231.185 678.287,231.178 677.959,231.679C676.896,233.301 674.894,232.325 669.213,237.114C667.242,238.775 666.994,238.373 665.244,240.281C659.629,246.4 658.879,245.851 655.055,253.256C652.338,258.518 653.242,258.804 651.196,264.406C648.518,271.741 651.525,284.066 650.279,285.036C648.327,286.557 630.782,274.635 596.53,276.995C585.756,277.738 579.851,277.952 558.615,285.77C545.051,290.764 531.211,302.24 529.073,304.013C511.994,318.175 502.542,334.625 500.79,337.675C500.613,337.984 500.658,337.994 498.651,341.578Z" style="fill:rgb(201,132,30);"/>
        <path d="M608.771,813.581C617.034,787.075 623.695,777.405 628.138,769.291C639.075,749.316 639.99,749.914 647.001,739.161C659.448,720.069 687.349,686.328 688.561,685.611C689.653,684.965 690.059,685.076 731.322,709.76C734.166,711.462 733.445,713.865 731.637,719.55C721.711,750.761 698.18,847.598 650.295,874.138C630.744,884.973 605.897,882.816 604.382,847.507C603.644,830.333 608.167,816.055 608.771,813.581Z" style="fill:rgb(199,133,33);"/>
        <path d="M390.187,843.503C389.532,884.399 361.028,888.926 333.893,867.031C303.017,842.118 283.987,787.872 273.187,754.597C271.97,750.847 260.761,713.676 260.905,712.524C261.107,710.899 261.429,710.881 277.729,700.872C279.622,699.709 294.13,690.801 301.58,686.651C306.27,684.038 306.569,686.024 309.825,690.226C323.523,707.901 388.832,780.553 390.187,843.503Z" style="fill:rgb(199,133,33);"/>
        <path d="M783.414,637.468C775.607,664.85 764.477,680.019 749.064,693.014C745.951,695.639 743.991,692.296 734.795,687.005C733.209,686.093 726.381,681.384 709.774,672.051C699.493,666.273 699.358,665.595 699.154,664.576C698.258,660.098 708.776,633.204 716.182,622.301C718.274,619.22 732.51,593.798 753.255,581.068C754.991,580.003 765.85,573.34 778.466,584.536C781.647,587.359 794.829,599.058 783.414,637.468Z" style="fill:rgb(198,133,34);"/>
        <path d="M209.836,634.407C209.167,631.786 209.16,631.805 209.113,631.576C205.055,611.648 207.157,601.13 207.676,598.536C210.686,583.472 224.052,578.852 229.481,578.265C250.975,575.941 289.526,631.265 294.765,662.469C295.586,667.355 292.931,666.349 275.777,676.926C257.727,688.056 257.832,688.153 256.26,689.109C248.417,693.876 247.668,695.16 243.907,692.032C219.458,671.699 211.904,641.274 209.836,634.407Z" style="fill:rgb(198,132,33);"/>
        <path d="M603.286,349.581C603.432,349.525 603.9,348.572 605.507,348.723C616.747,349.777 628.23,351.756 639.636,364.382C661.444,388.523 651.847,433.375 614.567,441.751C584.729,448.455 553.002,422.972 559.191,386.462C559.573,384.206 559.489,384.263 559.698,382.026C585.529,402.528 614.402,374.787 603.286,349.581Z" style="fill:rgb(62,80,78);fill-opacity:1;"/>
        <path d="M387.818,348.371C390.784,348.782 408.533,348.669 422.543,362.463C445.971,385.53 438.226,435.869 394.528,442.698C383.191,444.47 368.139,438.779 361.617,433.345C347.627,421.688 342.762,409.266 343.001,395.507C343.08,390.958 343.292,391.043 343.845,386.539C344.027,385.054 343.726,384.831 345.713,383.111C366.218,399.646 400.947,379.173 387.818,348.371Z" style="fill:rgb(61,79,78);fill-opacity:1;"/>
        <path d="M766.511,305.111C774.529,305.747 788.366,306.88 799.222,323.674C811.27,342.312 804.847,380.451 768.505,384.556C743.592,387.369 716.945,360.109 729.711,328.583C731.398,324.418 735.677,318.154 740.836,313.897C752.293,304.444 765.435,305.157 766.511,305.111Z" style="fill:rgb(86,112,118);fill-opacity:1;"/>
        <path d="M240.432,306.749C245.605,308.71 268.569,316.77 267.73,347.512C266.854,379.591 223.939,400.024 197.658,369.375C186.171,355.978 184.238,324.822 209.706,309.867C215.188,306.648 224.17,305.465 225.472,305.294C230.598,304.618 239.257,306.494 240.432,306.749Z" style="fill:rgb(82,107,111);fill-opacity:1;"/>
        <path d="M688.432,304.731C684.987,303.526 684.977,303.662 681.696,302.128C673.962,298.512 667.126,288.67 665.948,283.376C657.259,244.336 702.83,229.258 721.216,255.679C736.239,277.269 721.152,310.925 688.432,304.731Z" style="fill:rgb(248,247,237);fill-opacity:1;"/>
        <path d="M287.45,244.371C288.885,243.857 298.127,240.545 306.488,243.532C341.213,255.939 332.131,295.03 310.349,303.123C271.126,317.696 247.832,261.801 287.45,244.371Z" style="fill:rgb(249,248,238);fill-opacity:1;"/>
        <path d="M387.818,348.371C400.947,379.173 366.218,399.646 345.713,383.111C315.704,355.673 354.067,317.216 381.235,339.846C384.506,342.571 387.391,347.623 387.818,348.371Z" style="fill:rgb(251,252,251);"/>
        <path d="M603.286,349.581C614.402,374.787 585.529,402.528 559.698,382.026C541.589,365.587 554.411,346.749 556.119,344.238C564.48,331.954 581.105,331.342 588.68,335.116C599.151,340.331 600.115,343.787 603.286,349.581Z" style="fill:rgb(251,252,252);fill-opacity:1;"/>
        <path d="M692.562,295.101C692.364,295.057 687.662,294.505 684.652,292.277C664.066,277.041 679.362,250.554 698.511,253.424C725.735,257.504 722.143,298.092 692.562,295.101Z" style="fill:rgb(60,73,73);fill-opacity:1;"/>
        <path d="M277.79,271.529C277.883,270.9 278.665,265.666 279.955,263.892C295.864,242.011 321.573,257.244 319.158,276.465C315.802,303.179 275.712,301.52 277.79,271.529Z" style="fill:rgb(61,74,75);fill-opacity:1;"/>
        <path d="M506.256,576.341C497.299,590.804 498.14,598.861 495.999,593.235C495.119,590.922 493.506,582.742 481.939,567.161C472.531,554.489 465.125,551.154 468.341,550.169C470.196,549.601 525.545,549.19 526.725,550.175C528.878,551.974 525.647,551.586 515.867,562.822C511.112,568.286 506.941,575.204 506.256,576.341Z" style="fill:rgb(158,99,18);fill-opacity:1;"/>
        <path d="M767.154,324.569C767.644,324.556 768.01,323.989 768.5,323.977C768.743,323.97 768.713,324.042 771.453,324.708C798.346,331.251 786.595,373.267 759.484,365.551C747.776,362.219 742.371,348.576 745.574,338.4C746.22,338.811 751.192,341.982 754.52,341.818C758.313,341.631 761.811,339.433 762.226,339.148C769.308,334.285 767.42,325.771 767.154,324.569Z" style="fill:rgb(63,81,79);"/>
        <path d="M767.154,324.569C767.42,325.771 769.308,334.285 762.226,339.148C761.811,339.433 758.313,341.631 754.52,341.818C751.192,341.982 746.22,338.811 745.574,338.4C743.773,336.333 740.596,333.7 741.143,326.46C742.144,313.193 761.407,311.596 766.057,321.767C766.474,322.679 766.737,323.657 767.154,324.569Z" style="fill:rgb(248,250,250);"/>
        <path d="M230.2,325.543C233.308,344.101 208.129,347.399 204.151,331.588C200.545,317.256 222.978,305.757 230.2,325.543Z" style="fill:rgb(247,249,249);"/>
        <path d="M683.372,266.51C683.882,255.498 693.809,259.415 694.351,259.763C705.912,267.187 686.814,281.854 683.372,266.51Z" style="fill:rgb(246,248,245);"/>
        <path d="M295.612,259.221C309.472,268.076 288.815,279.839 285.76,267.446C284.805,263.572 287.328,261.111 287.729,260.72C290.426,258.09 294.985,259.085 295.612,259.221Z" style="fill:rgb(249,251,250);"/>
        <path d="M747.385,271.662C751.081,274.931 747.116,275.397 743.532,276.573C737.608,278.517 741.559,273.582 740.005,267.566C738.052,260.004 746.134,269.952 747.385,271.662Z" style="fill:rgb(204,130,29);"/>
        <path d="M253.5,264.458C253.588,264.894 254.228,265.077 254.316,265.513C254.385,265.856 254.01,266.146 253.909,266.481C253.105,269.125 253.473,272.613 253.386,275.488C253.325,277.516 252.445,277.016 250.51,276.474C248.212,275.83 242.368,276.201 245.812,272.881C249.649,269.183 249.072,267.85 253.5,264.458Z" style="fill:rgb(204,134,34);"/>
        <path d="M386.8,596.433C388.5,599.065 389.257,599.076 388.507,600.299C388.198,600.802 386.531,599.626 386.293,598.409C386.262,598.249 386.331,598.263 386.8,596.433Z" style="fill:rgb(147,175,134);"/>
    </g>
</svg>
